<svg width="17" height="29" viewBox="0 0 17 29" fill="none" xmlns="http://www.w3.org/2000/svg">
<path d="M11.25 13.125H5.75C5.02065 13.125 4.32118 12.8353 3.80546 12.3195C3.28973 11.8038 3 11.1043 3 10.375C3 9.64565 3.28973 8.94618 3.80546 8.43046C4.32118 7.91473 5.02065 7.625 5.75 7.625H12.625C12.9897 7.625 13.3394 7.76987 13.5973 8.02773C13.8551 8.28559 14 8.63533 14 9C14 9.36467 14.1449 9.71441 14.4027 9.97227C14.6606 10.2301 15.0103 10.375 15.375 10.375C15.7397 10.375 16.0894 10.2301 16.3473 9.97227C16.6051 9.71441 16.75 9.36467 16.75 9C16.75 7.90598 16.3154 6.85677 15.5418 6.08318C14.7682 5.3096 13.719 4.875 12.625 4.875H9.875V2.125C9.875 1.76033 9.73013 1.41059 9.47227 1.15273C9.21441 0.894866 8.86467 0.75 8.5 0.75C8.13533 0.75 7.78559 0.894866 7.52773 1.15273C7.26987 1.41059 7.125 1.76033 7.125 2.125V4.875H5.75C4.29131 4.875 2.89236 5.45446 1.86091 6.48591C0.829462 7.51736 0.25 8.91631 0.25 10.375C0.25 11.8337 0.829462 13.2326 1.86091 14.2641C2.89236 15.2955 4.29131 15.875 5.75 15.875H11.25C11.9793 15.875 12.6788 16.1647 13.1945 16.6805C13.7103 17.1962 14 17.8957 14 18.625C14 19.3543 13.7103 20.0538 13.1945 20.5695C12.6788 21.0853 11.9793 21.375 11.25 21.375H4.375C4.01033 21.375 3.66059 21.2301 3.40273 20.9723C3.14487 20.7144 3 20.3647 3 20C3 19.6353 2.85513 19.2856 2.59727 19.0277C2.33941 18.7699 1.98967 18.625 1.625 18.625C1.26033 18.625 0.910591 18.7699 0.652728 19.0277C0.394866 19.2856 0.25 19.6353 0.25 20C0.25 21.094 0.684597 22.1432 1.45818 22.9168C2.23177 23.6904 3.28098 24.125 4.375 24.125H7.125V26.875C7.125 27.2397 7.26987 27.5894 7.52773 27.8473C7.78559 28.1051 8.13533 28.25 8.5 28.25C8.86467 28.25 9.21441 28.1051 9.47227 27.8473C9.73013 27.5894 9.875 27.2397 9.875 26.875V24.125H11.25C12.7087 24.125 14.1076 23.5455 15.1391 22.5141C16.1705 21.4826 16.75 20.0837 16.75 18.625C16.75 17.1663 16.1705 15.7674 15.1391 14.7359C14.1076 13.7045 12.7087 13.125 11.25 13.125V13.125Z" fill="#6625C7"/>
</svg>
