<svg width="21" height="20" viewBox="0 0 21 20" fill="none" xmlns="http://www.w3.org/2000/svg">
<path fill-rule="evenodd" clip-rule="evenodd" d="M15.9565 4.37499H4.44597L3.46249 2.61215C3.3521 2.41428 3.14327 2.29166 2.91669 2.29166H1.66669C1.32151 2.29166 1.04169 2.57148 1.04169 2.91666C1.04169 3.26183 1.32151 3.54166 1.66669 3.54166H2.54969L3.52026 5.28137L5.75866 10.2341L5.76095 10.2391L5.95811 10.6753L3.71074 13.0725C3.54915 13.2449 3.49857 13.4936 3.58001 13.7154C3.66145 13.9372 3.861 14.0941 4.09574 14.1209L6.14418 14.3551C8.70641 14.6479 11.2937 14.6479 13.8559 14.3551L15.9043 14.1209C16.2473 14.0818 16.4935 13.772 16.4543 13.429C16.4151 13.0861 16.1053 12.8398 15.7624 12.879L13.714 13.1131C11.246 13.3952 8.75403 13.3952 6.28611 13.1131L5.47318 13.0202L7.12266 11.2608C7.13862 11.2438 7.15344 11.2261 7.16712 11.2079L7.79447 11.2895C8.67357 11.4039 9.5622 11.4263 10.446 11.3564C12.5072 11.1934 14.4175 10.2126 15.7512 8.63255L16.233 8.06187C16.2491 8.0427 16.2642 8.02258 16.2779 8.00161L17.1757 6.6334C17.8121 5.66359 17.1164 4.37499 15.9565 4.37499ZM7.21358 9.95336C7.07574 9.93543 6.95688 9.84787 6.89884 9.72169L6.89773 9.71925L5.0473 5.62499H15.9565C16.1222 5.62499 16.2216 5.80908 16.1306 5.94762L15.2535 7.28435L14.7961 7.82626C13.6777 9.15115 12.0758 9.97359 10.3474 10.1103C9.55025 10.1733 8.74871 10.1531 7.95575 10.0499L7.21358 9.95336Z" fill="white"/>
<path d="M5.41669 15.4167C4.72633 15.4167 4.16669 15.9763 4.16669 16.6667C4.16669 17.357 4.72633 17.9167 5.41669 17.9167C6.10704 17.9167 6.66669 17.357 6.66669 16.6667C6.66669 15.9763 6.10704 15.4167 5.41669 15.4167Z" fill="white"/>
<path d="M13.3334 16.6667C13.3334 15.9763 13.893 15.4167 14.5834 15.4167C15.2737 15.4167 15.8334 15.9763 15.8334 16.6667C15.8334 17.357 15.2737 17.9167 14.5834 17.9167C13.893 17.9167 13.3334 17.357 13.3334 16.6667Z" fill="white"/>
</svg>
