<svg width="35" height="35" viewBox="0 0 35 35" fill="none" xmlns="http://www.w3.org/2000/svg">
<path fill-rule="evenodd" clip-rule="evenodd" d="M28.8021 17.5C28.8021 16.8959 28.3124 16.4063 27.7084 16.4063H7.29169C6.68762 16.4063 6.19794 16.8959 6.19794 17.5C6.19794 18.1041 6.68762 18.5938 7.29169 18.5938H27.7084C28.3124 18.5938 28.8021 18.1041 28.8021 17.5Z" fill="#61636F"/>
<path fill-rule="evenodd" clip-rule="evenodd" d="M28.8021 10.2083C28.8021 9.60428 28.3124 9.11459 27.7084 9.11459H7.29169C6.68762 9.11459 6.19794 9.60428 6.19794 10.2083C6.19794 10.8124 6.68762 11.3021 7.29169 11.3021H27.7084C28.3124 11.3021 28.8021 10.8124 28.8021 10.2083Z" fill="#61636F"/>
<path fill-rule="evenodd" clip-rule="evenodd" d="M28.8021 24.7917C28.8021 24.1876 28.3124 23.6979 27.7084 23.6979H7.29169C6.68762 23.6979 6.19794 24.1876 6.19794 24.7917C6.19794 25.3957 6.68762 25.8854 7.29169 25.8854H27.7084C28.3124 25.8854 28.8021 25.3957 28.8021 24.7917Z" fill="#61636F"/>
</svg>
