<svg width="20" height="20" viewBox="0 0 20 20" fill="none" xmlns="http://www.w3.org/2000/svg">
<path d="M16.6663 9.79173H3.33299C3.14132 9.79173 2.96632 9.7084 2.84966 9.5584C2.73299 9.41673 2.68299 9.21673 2.72466 9.0334L3.66632 4.5334C3.97466 3.07507 4.59966 1.7334 7.07466 1.7334H12.933C15.408 1.7334 16.033 3.0834 16.3413 4.5334L17.283 9.04173C17.3247 9.22507 17.2747 9.41673 17.158 9.56673C17.033 9.7084 16.858 9.79173 16.6663 9.79173ZM4.09966 8.54173H15.8913L15.108 4.79173C14.8747 3.70007 14.5997 2.9834 12.9247 2.9834H7.07466C5.39966 2.9834 5.12466 3.70007 4.89132 4.79173L4.09966 8.54173Z" fill="#61636F"/>
<path d="M16.633 18.9584H15.0663C13.7163 18.9584 13.458 18.1834 13.2913 17.6751L13.1247 17.1751C12.908 16.5417 12.883 16.4584 12.133 16.4584H7.86633C7.11633 16.4584 7.06633 16.6001 6.87466 17.1751L6.708 17.6751C6.533 18.1917 6.283 18.9584 4.933 18.9584H3.36633C2.708 18.9584 2.07466 18.6834 1.633 18.2001C1.19966 17.7251 0.991331 17.0917 1.04966 16.4584L1.51633 11.3834C1.64133 10.0084 2.008 8.54173 4.683 8.54173H15.3163C17.9913 8.54173 18.3497 10.0084 18.483 11.3834L18.9497 16.4584C19.008 17.0917 18.7997 17.7251 18.3663 18.2001C17.9247 18.6834 17.2913 18.9584 16.633 18.9584ZM7.86633 15.2084H12.133C13.6497 15.2084 14.008 15.8834 14.308 16.7667L14.483 17.2834C14.6247 17.7084 14.6247 17.7167 15.0747 17.7167H16.6413C16.9497 17.7167 17.2413 17.5917 17.4497 17.3667C17.6497 17.1501 17.7413 16.8751 17.7163 16.5834L17.2497 11.5084C17.1413 10.3834 17.008 9.80007 15.333 9.80007H4.683C2.99966 9.80007 2.86633 10.3834 2.76633 11.5084L2.29966 16.5834C2.27466 16.8751 2.36633 17.1501 2.56633 17.3667C2.76633 17.5917 3.06633 17.7167 3.37466 17.7167H4.94133C5.39133 17.7167 5.39133 17.7084 5.533 17.2917L5.69966 16.7834C5.908 16.1167 6.21633 15.2084 7.86633 15.2084Z" fill="#61636F"/>
<path d="M3.33303 7.29173H2.49969C2.15803 7.29173 1.87469 7.0084 1.87469 6.66673C1.87469 6.32507 2.15803 6.04173 2.49969 6.04173H3.33303C3.67469 6.04173 3.95803 6.32507 3.95803 6.66673C3.95803 7.0084 3.67469 7.29173 3.33303 7.29173Z" fill="#61636F"/>
<path d="M17.4997 7.29173H16.6663C16.3247 7.29173 16.0413 7.0084 16.0413 6.66673C16.0413 6.32507 16.3247 6.04173 16.6663 6.04173H17.4997C17.8413 6.04173 18.1247 6.32507 18.1247 6.66673C18.1247 7.0084 17.8413 7.29173 17.4997 7.29173Z" fill="#61636F"/>
<path d="M9.99963 4.79173C9.65797 4.79173 9.37463 4.50839 9.37463 4.16673V2.50006C9.37463 2.15839 9.65797 1.87506 9.99963 1.87506C10.3413 1.87506 10.6246 2.15839 10.6246 2.50006V4.16673C10.6246 4.50839 10.3413 4.79173 9.99963 4.79173Z" fill="#61636F"/>
<path d="M11.2496 4.79173H8.74963C8.40797 4.79173 8.12463 4.5084 8.12463 4.16673C8.12463 3.82507 8.40797 3.54173 8.74963 3.54173H11.2496C11.5913 3.54173 11.8746 3.82507 11.8746 4.16673C11.8746 4.5084 11.5913 4.79173 11.2496 4.79173Z" fill="#61636F"/>
<path d="M7.49969 13.1251H4.99969C4.65803 13.1251 4.37469 12.8417 4.37469 12.5001C4.37469 12.1584 4.65803 11.8751 4.99969 11.8751H7.49969C7.84136 11.8751 8.12469 12.1584 8.12469 12.5001C8.12469 12.8417 7.84136 13.1251 7.49969 13.1251Z" fill="#61636F"/>
<path d="M14.9997 13.1251H12.4997C12.158 13.1251 11.8747 12.8417 11.8747 12.5001C11.8747 12.1584 12.158 11.8751 12.4997 11.8751H14.9997C15.3414 11.8751 15.6247 12.1584 15.6247 12.5001C15.6247 12.8417 15.3414 13.1251 14.9997 13.1251Z" fill="#61636F"/>
</svg>
