<svg width="20" height="20" viewBox="0 0 20 20" fill="none" xmlns="http://www.w3.org/2000/svg">
<path d="M16.6666 6.87499V15C16.6666 17.5 15.175 18.3333 13.3333 18.3333H6.66665C4.82498 18.3333 3.33331 17.5 3.33331 15V6.87499C3.33331 4.16666 4.82498 3.54166 6.66665 3.54166C6.66665 4.05832 6.87496 4.52499 7.21662 4.86665C7.55829 5.20832 8.02498 5.41666 8.54165 5.41666H11.4583C12.4916 5.41666 13.3333 4.57499 13.3333 3.54166C15.175 3.54166 16.6666 4.16666 16.6666 6.87499Z" stroke="white" stroke-width="1.5" stroke-linecap="round" stroke-linejoin="round"/>
<path d="M13.3334 3.54166C13.3334 4.57499 12.4917 5.41666 11.4584 5.41666H8.54169C8.02502 5.41666 7.55833 5.20832 7.21666 4.86665C6.875 4.52499 6.66669 4.05832 6.66669 3.54166C6.66669 2.50832 7.50835 1.66666 8.54169 1.66666H11.4584C11.975 1.66666 12.4417 1.87499 12.7834 2.21666C13.125 2.55833 13.3334 3.02499 13.3334 3.54166Z" stroke="white" stroke-width="1.5" stroke-linecap="round" stroke-linejoin="round"/>
<path d="M6.66669 10.8333H10" stroke="white" stroke-width="1.5" stroke-linecap="round" stroke-linejoin="round"/>
<path d="M6.66669 14.1667H13.3334" stroke="white" stroke-width="1.5" stroke-linecap="round" stroke-linejoin="round"/>
</svg>
