<svg width="20" height="19" viewBox="0 0 20 19" fill="none" xmlns="http://www.w3.org/2000/svg">
<path d="M11.25 6.80879C11.25 6.39458 10.9142 6.05879 10.5 6.05879H4.5C4.08579 6.05879 3.75 6.39458 3.75 6.80879C3.75 7.22301 4.08579 7.55879 4.5 7.55879H10.5C10.9142 7.55879 11.25 7.22301 11.25 6.80879Z" fill="#61636F"/>
<path d="M10.25 9.80879C10.25 9.39458 9.91421 9.05879 9.5 9.05879H4.5C4.08579 9.05879 3.75 9.39458 3.75 9.80879C3.75 10.223 4.08579 10.5588 4.5 10.5588H9.5C9.91421 10.5588 10.25 10.223 10.25 9.80879Z" fill="#61636F"/>
<path d="M10.5 12.0588C10.9142 12.0588 11.25 12.3946 11.25 12.8088C11.25 13.223 10.9142 13.5588 10.5 13.5588H4.5C4.08579 13.5588 3.75 13.223 3.75 12.8088C3.75 12.3946 4.08579 12.0588 4.5 12.0588H10.5Z" fill="#61636F"/>
<path fill-rule="evenodd" clip-rule="evenodd" d="M3.75 18.8088H16.75C18.2688 18.8088 19.5 17.5776 19.5 16.0588V10.5588C19.5 10.1446 19.1642 9.8088 18.75 9.8088H15.5V2.00199C15.5 0.578587 13.8911 -0.24938 12.7328 0.577955L12.5578 0.702989C11.7773 1.26048 10.7201 1.25861 9.93593 0.698499C8.63206 -0.232833 6.86794 -0.232833 5.56407 0.698499C4.77992 1.25861 3.7227 1.26048 2.94221 0.702989L2.76717 0.577955C1.6089 -0.24938 0 0.578588 0 2.00199V15.0588C0 17.1299 1.67893 18.8088 3.75 18.8088ZM6.43593 1.9191C7.21825 1.3603 8.28175 1.3603 9.06407 1.9191C10.3661 2.84912 12.1239 2.85623 13.4296 1.92359L13.6047 1.79856C13.7702 1.68036 14 1.79865 14 2.00199V16.0588C14 16.5089 14.1081 16.9338 14.2999 17.3088H3.75C2.50736 17.3088 1.5 16.3014 1.5 15.0588V2.00199C1.5 1.79865 1.72984 1.68036 1.89531 1.79856L2.07036 1.92359C3.37605 2.85623 5.1339 2.84912 6.43593 1.9191ZM15.5 16.0588V11.3088H18V16.0588C18 16.7492 17.4404 17.3088 16.75 17.3088C16.0596 17.3088 15.5 16.7492 15.5 16.0588Z" fill="#61636F"/>
</svg>
