<svg width="13" height="15" viewBox="0 0 13 15" fill="none" xmlns="http://www.w3.org/2000/svg">
<path fill-rule="evenodd" clip-rule="evenodd" d="M2.91667 3.54167C2.91667 1.58566 4.50233 0 6.45833 0C8.41434 0 10 1.58566 10 3.54167C10 5.49767 8.41434 7.08333 6.45833 7.08333C4.50233 7.08333 2.91667 5.49767 2.91667 3.54167ZM6.45833 1.25C5.19268 1.25 4.16667 2.27601 4.16667 3.54167C4.16667 4.80732 5.19268 5.83333 6.45833 5.83333C7.72399 5.83333 8.75 4.80732 8.75 3.54167C8.75 2.27601 7.72399 1.25 6.45833 1.25Z" fill="white"/>
<path fill-rule="evenodd" clip-rule="evenodd" d="M3.125 9.58333C2.08947 9.58333 1.25 10.4228 1.25 11.4583V12.4486C1.25 12.4636 1.26093 12.4765 1.27581 12.4789C4.7081 13.0393 8.20856 13.0393 11.6409 12.4789C11.6557 12.4765 11.6667 12.4636 11.6667 12.4486V11.4583C11.6667 10.4228 10.8272 9.58333 9.79167 9.58333H9.50761C9.48565 9.58333 9.46382 9.58681 9.44294 9.59362L8.72168 9.82914C7.25099 10.3094 5.66568 10.3094 4.19499 9.82914L3.47372 9.59362C3.45285 9.58681 3.43102 9.58333 3.40906 9.58333H3.125ZM0 11.4583C0 9.73244 1.39911 8.33333 3.125 8.33333H3.40906C3.5628 8.33333 3.71558 8.35764 3.86173 8.40537L4.58299 8.64088C5.80156 9.03878 7.11511 9.03878 8.33368 8.64088L9.05494 8.40537C9.20109 8.35764 9.35387 8.33333 9.50761 8.33333H9.79167C11.5176 8.33333 12.9167 9.73244 12.9167 11.4583V12.4486C12.9167 13.0763 12.4618 13.6115 11.8423 13.7126C8.27659 14.2948 4.64008 14.2948 1.07439 13.7126C0.454903 13.6115 0 13.0763 0 12.4486V11.4583Z" fill="white"/>
</svg>
